<?xml version="1.0" standalone="no"?>
<!DOCTYPE svg PUBLIC "-//W3C//DTD SVG 20010904//EN"
 "http://www.w3.org/TR/2001/REC-SVG-20010904/DTD/svg10.dtd">
<svg version="1.0" xmlns="http://www.w3.org/2000/svg"
 width="500.000000pt" height="500.000000pt" viewBox="0 0 500.000000 500.000000"
 preserveAspectRatio="xMidYMid meet">
<metadata>
Created by potrace 1.11, written by Peter Selinger 2001-2013
</metadata>
<g transform="translate(0.000000,500.000000) scale(0.100000,-0.100000)"
fill="#000000" stroke="none">
<path d="M3889 3213 c0 -15 -3 -56 -5 -90 l-4 -63 37 -1 c21 -1 54 -2 73 -2
44 0 49 -9 37 -57 l-11 -38 -71 5 -72 5 -2 -56 c-1 -39 2 -56 11 -57 7 -1 41
-1 76 -1 68 -1 67 0 56 -70 l-6 -36 -72 1 -71 2 -3 -57 -3 -57 63 0 c35 0 68
0 74 0 8 -1 8 -13 2 -43 l-10 -43 -68 3 -67 4 -2 -74 c-1 -40 -4 -95 -6 -123
-4 -61 -13 -234 -20 -375 -3 -58 -8 -139 -10 -180 -14 -210 -15 -269 -8 -273
4 -3 69 -8 143 -11 74 -4 160 -9 190 -11 30 -2 105 -6 165 -10 61 -3 146 -8
190 -10 44 -3 120 -7 168 -10 l88 -5 -3 156 -3 155 -100 -6 c-55 -4 -104 -10
-110 -15 -6 -5 -33 -42 -60 -82 -27 -40 -54 -78 -60 -83 -7 -6 -52 -10 -101
-9 -49 1 -131 3 -181 3 l-93 1 5 43 c3 23 8 53 10 67 6 37 14 99 20 150 7 57
14 109 25 185 5 33 12 83 15 110 3 28 8 59 10 70 2 11 4 26 4 33 1 7 5 11 9 8
5 -3 19 -7 33 -9 46 -9 324 -68 342 -73 14 -4 27 15 66 98 27 57 56 120 65
141 l16 38 -83 -5 c-45 -3 -140 -8 -212 -11 -71 -4 -147 -8 -167 -10 -37 -3
-38 -2 -38 30 0 19 4 67 10 107 5 40 11 93 14 118 3 25 12 104 21 175 8 72 17
149 21 173 l5 43 52 -6 c209 -23 272 -42 331 -100 34 -33 49 -58 65 -110 12
-37 21 -78 21 -92 0 -16 5 -23 13 -21 6 3 42 13 79 23 67 18 68 18 62 49 -8
48 -59 147 -100 195 -72 84 -210 150 -364 176 -19 3 -42 8 -50 10 -8 3 -53 7
-100 10 -106 6 -207 14 -287 21 l-63 6 -1 -29z"/>
<path d="M696 3128 c-9 -46 -19 -92 -22 -103 -3 -11 -7 -31 -9 -45 -5 -30 -9
-52 -80 -395 -30 -148 -58 -283 -61 -300 -3 -16 -16 -79 -30 -139 -70 -315
-160 -509 -306 -659 l-76 -79 17 -40 17 -40 76 61 c203 163 324 379 413 737
15 60 29 110 30 112 1 1 100 -117 220 -263 190 -230 220 -263 230 -247 6 9 65
107 130 217 65 110 128 216 140 235 13 19 71 116 129 215 l106 180 -5 -125
c-2 -69 -7 -195 -10 -280 -7 -199 -15 -424 -20 -569 -3 -62 -3 -117 0 -121 3
-4 24 -4 47 0 24 5 77 11 118 14 41 4 89 8 105 11 17 2 53 7 80 10 28 3 69 8
93 11 l43 6 -5 47 c-3 25 -8 71 -11 101 -3 30 -12 123 -20 205 -8 83 -17 179
-20 215 -3 36 -8 81 -10 100 -2 19 -6 58 -10 85 -3 28 -7 77 -10 110 -5 58
-12 134 -20 205 -2 19 -7 64 -10 100 -3 36 -8 81 -10 100 -2 19 -6 67 -10 105
-3 39 -8 88 -10 110 -2 22 -7 67 -11 100 -3 33 -7 61 -8 62 -1 1 -50 4 -109 6
l-107 5 -231 -462 c-127 -253 -232 -462 -233 -463 -1 -2 -30 50 -64 115 -34
64 -87 164 -118 222 -110 208 -163 306 -209 395 -85 160 -107 200 -114 208 -5
4 -16 -29 -25 -75z m97 -486 c7 -15 78 -139 156 -276 79 -137 148 -260 153
-272 9 -19 6 -32 -13 -69 -13 -25 -27 -45 -30 -45 -10 0 -342 442 -342 454 3
49 46 245 54 241 4 -3 14 -18 22 -33z m1063 -454 c-4 -68 -9 -134 -11 -148 -2
-14 -6 -45 -10 -70 -7 -50 -6 -48 -25 -148 l-14 -74 -45 7 c-25 4 -47 8 -49 9
-1 2 7 29 17 62 52 158 86 324 90 446 1 24 11 32 45 37 5 0 6 -52 2 -121z"/>
<path d="M2848 3186 c-112 -32 -211 -108 -282 -215 -122 -183 -90 -424 67
-521 l29 -18 -54 -36 c-133 -90 -220 -208 -256 -346 -10 -38 -10 -191 -1 -226
30 -108 99 -189 202 -237 135 -63 335 -73 482 -23 86 29 224 103 226 120 0 6
2 27 4 46 8 108 16 210 20 250 3 25 8 83 11 130 3 47 7 99 9 115 1 17 3 38 4
48 1 16 10 17 112 12 l112 -6 -7 23 c-3 13 -13 55 -21 93 -8 39 -17 81 -20 95
-2 14 -8 40 -11 58 -5 27 -11 32 -33 32 -37 0 -40 -5 -30 -48 5 -25 4 -39 -4
-44 -24 -15 -36 -7 -48 32 -11 36 -15 40 -45 40 l-32 0 10 -40 c12 -46 12 -46
-23 -55 -18 -4 -26 -2 -27 7 -8 65 -13 74 -43 70 -27 -4 -29 -7 -27 -46 3 -38
1 -41 -23 -44 -23 -3 -27 1 -33 30 l-6 34 -108 0 c-121 -1 -160 11 -224 72
-53 50 -72 114 -65 211 7 86 13 109 45 168 34 65 81 96 154 99 55 3 63 1 89
-26 42 -41 37 -114 -11 -165 -18 -20 -18 -21 13 -58 l32 -37 45 15 c184 63
186 288 3 376 -57 27 -168 34 -235 15z m30 -854 c37 -10 77 -17 90 -16 12 1
23 -4 23 -10 3 -22 7 -52 13 -96 9 -62 17 -120 21 -150 2 -14 6 -43 10 -65 3
-22 7 -53 9 -70 6 -47 27 -197 32 -231 4 -28 1 -32 -48 -55 -75 -35 -177 -33
-241 4 -92 54 -128 134 -133 287 -5 159 30 291 102 385 31 41 32 41 122 17z
m-264 -104 c19 -27 21 -68 3 -91 -6 -10 -28 -20 -48 -23 -29 -5 -40 -2 -58 17
-25 27 -27 66 -5 97 21 31 87 31 108 0z m-69 -194 c68 -44 43 -147 -39 -161
-44 -7 -74 11 -92 53 -34 82 56 157 131 108z m69 -263 c28 -55 -1 -106 -60
-104 -53 2 -68 21 -65 86 2 55 99 69 125 18z"/>
<path d="M4416 2835 l-79 -20 -38 -78 c-26 -53 -34 -79 -26 -82 27 -10 212
-54 215 -51 1 2 5 21 7 42 3 22 7 55 10 74 15 112 16 137 3 136 -7 0 -49 -9
-92 -21z"/>
</g>
</svg>
